<?xml version="1.0" encoding="UTF-8" standalone="no"?>
<!-- Created with Inkscape (http://www.inkscape.org/) -->

<svg
   width="11.11581mm"
   height="11.115811mm"
   viewBox="0 0 11.11581 11.115811"
   version="1.1"
   id="svg5"
   inkscape:version="1.2.2 (732a01da63, 2022-12-09)"
   sodipodi:docname="rysunek-1.svg"
   inkscape:export-filename="rysunek-1.svg"
   inkscape:export-xdpi="146.24214"
   inkscape:export-ydpi="146.24214"
   xmlns:inkscape="http://www.inkscape.org/namespaces/inkscape"
   xmlns:sodipodi="http://sodipodi.sourceforge.net/DTD/sodipodi-0.dtd"
   xmlns="http://www.w3.org/2000/svg"
   xmlns:svg="http://www.w3.org/2000/svg">
  <sodipodi:namedview
     id="namedview7"
     pagecolor="#ffffff"
     bordercolor="#000000"
     borderopacity="0.25"
     inkscape:showpageshadow="2"
     inkscape:pageopacity="0.0"
     inkscape:pagecheckerboard="0"
     inkscape:deskcolor="#d1d1d1"
     inkscape:document-units="mm"
     showgrid="false"
     inkscape:zoom="7.319248"
     inkscape:cx="-3.3473384"
     inkscape:cy="34.156514"
     inkscape:window-width="2560"
     inkscape:window-height="1369"
     inkscape:window-x="2552"
     inkscape:window-y="-8"
     inkscape:window-maximized="1"
     inkscape:current-layer="layer1" />
  <defs
     id="defs2" />
  <g
     inkscape:label="Warstwa 1"
     inkscape:groupmode="layer"
     id="layer1"
     transform="translate(-65.593399,-134.24774)">
    <g
       aria-label="s"
       id="text236"
       style="font-size:14.1111px;font-family:Pacifico;-inkscape-font-specification:'Pacifico, Normal';fill:#004bff;stroke-width:0;stroke-linecap:round;stroke-opacity:0.996552">
      <path
         d="m 71.082709,144.08603 q -0.631082,0 -1.358197,-0.23322 -0.713397,-0.24695 -1.234725,-0.80943 l 0.411575,-1.61887 q 0.384136,0.6448 0.98778,1.02894 0.603643,0.37042 1.289601,0.37042 0.65852,0 0.98778,-0.31554 0.32926,-0.32926 0.32926,-0.79571 0,-0.53505 -0.356698,-0.782 -0.342979,-0.24694 -0.617363,-0.34298 l -1.111252,-0.42529 q -0.301822,-0.12347 -0.727116,-0.3567 -0.425294,-0.24694 -0.740835,-0.69968 -0.315541,-0.45273 -0.315541,-1.17984 0,-0.65852 0.315541,-1.20729 0.315541,-0.54877 0.891746,-0.86431 0.576205,-0.32926 1.358197,-0.32926 0.617363,0 1.289602,0.21951 0.672239,0.21951 1.138691,0.74083 l -0.411575,1.61887 q -0.32926,-0.60365 -0.891746,-0.96035 -0.562486,-0.35669 -1.166129,-0.35669 -0.562486,0 -0.891746,0.31554 -0.315541,0.31554 -0.315541,0.72711 0,0.32926 0.219507,0.58993 0.219507,0.26066 0.65852,0.42529 l 1.111252,0.42529 q 0.301822,0.10976 0.740835,0.3567 0.452733,0.24695 0.795712,0.7134 0.342979,0.46645 0.342979,1.26216 0,1.11126 -0.781992,1.79721 -0.768274,0.68596 -1.948122,0.68596 z"
         style="font-size:19.7556px;font-family:Afacad;-inkscape-font-specification:'Afacad, Normal';fill:#000000"
         id="path1098" />
    </g>
    <rect
       style="fill:none;stroke-width:0;stroke-linecap:round;stroke-opacity:0.996552"
       id="rect1062"
       width="11.11581"
       height="11.11581"
       x="65.593399"
       y="134.24774" />
  </g>
</svg>
